<svg xmlns="http://www.w3.org/2000/svg" width="500" height="500" viewBox="0 0 500 500">
  <defs>
    <linearGradient id="grad" x1="0" y1="0" x2="1" y2="0.15">
      <stop offset="0" stop-color="#159A93"/>
      <stop offset="0.55" stop-color="#21B7A4"/>
      <stop offset="1" stop-color="#56D6B0"/>
    </linearGradient>
  </defs>
  <!-- card -->
  <rect x="10" y="10" width="480" height="480" rx="72" fill="#ffffff" stroke="#0E97A7" stroke-width="18"/>
  <!-- spray / water-drop emblem -->
  <g transform="translate(250 158)">
    <path d="M0 -54 C0 -54 -38 -2 -38 26 a38 38 0 0 0 76 0 C38 -2 0 -54 0 -54 Z" fill="url(#grad)"/>
    <circle cx="-13" cy="22" r="11" fill="#ffffff" opacity="0.55"/>
    <path d="M44 -30 l30 -10 M50 -8 l32 2 M44 16 l30 12" stroke="#21B7A4" stroke-width="7" stroke-linecap="round"/>
    <path d="M-44 -30 l-30 -10 M-50 -8 l-32 2 M-44 16 l-30 12" stroke="#21B7A4" stroke-width="7" stroke-linecap="round"/>
  </g>
  <!-- wordmark -->
  <text x="250" y="320" text-anchor="middle" font-family="Arial, Helvetica, sans-serif" font-size="120" font-weight="800" font-style="italic" fill="url(#grad)" letter-spacing="2">AERO</text>
  <text x="250" y="392" text-anchor="middle" font-family="Arial, Helvetica, sans-serif" font-size="62" font-weight="700" fill="#3A3F45" letter-spacing="20">WASH</text>
</svg>
