<svg aria-hidden="true" class="ico_d" width="25" height="25" viewBox="0 0 39 39" fill="none" xmlns="http://www.w3.org/2000/svg" ><path class="fil2" xmlns="http://www.w3.org/2000/svg" fill-rule="evenodd" clip-rule="evenodd" d="M18.3682 12.0225H14.7069L14.7072 12.0146H8.34406C7.68102 12.0146 7.37264 12.8369 7.87214 13.2729L12.3314 17.1655L12.3349 17.1575L14.2487 18.8409L15.5297 20.0303L15.8136 30.1568C15.8335 30.8679 16.7223 31.1766 17.1788 30.6311L18.1515 29.4688L18.1501 29.4639L23.0436 23.4746L23.042 23.4662L27.0348 18.6748L27.0342 18.6702L31.5963 13.1853C31.9852 12.7178 31.6527 12.0088 31.0446 12.0088H26.8826L26.8812 12.0117H22.4407C22.4384 12.0117 22.4361 12.0154 22.4339 12.0225H22.4305L22.4307 12.0166H18.3682V12.0225ZM22.144 22.3959L22.1417 22.3907L26.4497 17.1663L26.4485 17.1572C26.8174 16.7145 28.1257 14.9555 28.2462 14.748L26.9385 15.4023L26.9341 15.4013L22.3595 17.6036L22.3592 17.6022L18.7611 19.3095L18.7628 19.3125L18.5032 19.4318L18.2248 19.5631L17.9411 19.6897C17.6515 19.764 17.0784 20.0395 17.0784 20.5547C17.0784 21.0538 17.192 25.532 17.2547 27.9372C17.2572 28.0334 17.373 28.0799 17.442 28.0129L17.6881 27.7738L22.144 22.3959ZM26.5753 14.0135L26.5753 14.0117L27.625 13.4429H27.3214H14.6612L14.6611 13.445H10.3521L12.4872 15.351L12.487 15.3582L16.0313 18.4673C16.3197 18.7229 16.6615 18.7989 16.9921 18.6007L17.5635 18.2922L22.2794 16.0459L22.2799 16.048L26.5753 14.0135Z" fill="white"></path></svg>